<?xml version="1.0" encoding="UTF-8"?>
<svg xmlns="http://www.w3.org/2000/svg" xmlns:xlink="http://www.w3.org/1999/xlink" width="127.000mm" height="127.000mm" viewBox="185.500031 -313.500000 126.999969 126.999969">
    <rect transform="matrix(1,0,0,-1,249.000015,-250.000015)" style="stroke:#00e000;stroke-width:0.05mm;fill:none" x="-63.499977" y="-63.499992" width="126.999954" height="126.999985"/>
    <circle transform="matrix(1,0,0,-1,191.850006,-192.850006)" style="stroke:#00e000;stroke-width:0.05mm;fill:none" r="5.499997" cx="0" cy="0"/>
    <circle transform="matrix(1,0,0,-1,204.550003,-192.850006)" style="stroke:#00e000;stroke-width:0.05mm;fill:none" r="5.499997" cx="0" cy="0"/>
    <circle transform="matrix(1,0,0,-1,217.25,-192.850006)" style="stroke:#00e000;stroke-width:0.05mm;fill:none" r="5.499997" cx="0" cy="0"/>
    <circle transform="matrix(1,0,0,-1,229.949997,-192.850006)" style="stroke:#00e000;stroke-width:0.05mm;fill:none" r="5.499997" cx="0" cy="0"/>
    <circle transform="matrix(1,0,0,-1,242.649994,-192.850006)" style="stroke:#00e000;stroke-width:0.05mm;fill:none" r="5.499997" cx="0" cy="0"/>
    <circle transform="matrix(1,0,0,-1,255.350006,-192.850006)" style="stroke:#00e000;stroke-width:0.05mm;fill:none" r="5.499997" cx="0" cy="0"/>
    <circle transform="matrix(1,0,0,-1,268.049988,-192.850006)" style="stroke:#00e000;stroke-width:0.05mm;fill:none" r="5.499997" cx="0" cy="0"/>
    <circle transform="matrix(1,0,0,-1,280.75,-192.850006)" style="stroke:#00e000;stroke-width:0.05mm;fill:none" r="5.499997" cx="0" cy="0"/>
    <circle transform="matrix(1,0,0,-1,293.450012,-192.850006)" style="stroke:#00e000;stroke-width:0.05mm;fill:none" r="5.499997" cx="0" cy="0"/>
    <circle transform="matrix(1,0,0,-1,306.150024,-192.850006)" style="stroke:#00e000;stroke-width:0.05mm;fill:none" r="5.499997" cx="0" cy="0"/>
    <circle transform="matrix(1,0,0,-1,191.850006,-205.550003)" style="stroke:#00e000;stroke-width:0.05mm;fill:none" r="5.499997" cx="0" cy="0"/>
    <circle transform="matrix(1,0,0,-1,204.550003,-205.550003)" style="stroke:#00e000;stroke-width:0.05mm;fill:none" r="5.499997" cx="0" cy="0"/>
    <circle transform="matrix(1,0,0,-1,217.25,-205.550003)" style="stroke:#00e000;stroke-width:0.05mm;fill:none" r="5.499997" cx="0" cy="0"/>
    <circle transform="matrix(1,0,0,-1,229.949997,-205.550003)" style="stroke:#00e000;stroke-width:0.05mm;fill:none" r="5.499997" cx="0" cy="0"/>
    <circle transform="matrix(1,0,0,-1,242.649994,-205.550003)" style="stroke:#00e000;stroke-width:0.05mm;fill:none" r="5.499997" cx="0" cy="0"/>
    <circle transform="matrix(1,0,0,-1,255.350006,-205.550003)" style="stroke:#00e000;stroke-width:0.05mm;fill:none" r="5.499997" cx="0" cy="0"/>
    <circle transform="matrix(1,0,0,-1,268.049988,-205.550003)" style="stroke:#00e000;stroke-width:0.05mm;fill:none" r="5.499997" cx="0" cy="0"/>
    <circle transform="matrix(1,0,0,-1,280.75,-205.550003)" style="stroke:#00e000;stroke-width:0.05mm;fill:none" r="5.499997" cx="0" cy="0"/>
    <circle transform="matrix(1,0,0,-1,293.450012,-205.550003)" style="stroke:#00e000;stroke-width:0.05mm;fill:none" r="5.499997" cx="0" cy="0"/>
    <circle transform="matrix(1,0,0,-1,306.150024,-205.550003)" style="stroke:#00e000;stroke-width:0.05mm;fill:none" r="5.499997" cx="0" cy="0"/>
    <circle transform="matrix(1,0,0,-1,191.850006,-218.25)" style="stroke:#00e000;stroke-width:0.05mm;fill:none" r="5.499997" cx="0" cy="0"/>
    <circle transform="matrix(1,0,0,-1,204.550003,-218.25)" style="stroke:#00e000;stroke-width:0.05mm;fill:none" r="5.499997" cx="0" cy="0"/>
    <circle transform="matrix(1,0,0,-1,217.25,-218.25)" style="stroke:#00e000;stroke-width:0.05mm;fill:none" r="5.499997" cx="0" cy="0"/>
    <circle transform="matrix(1,0,0,-1,229.949997,-218.25)" style="stroke:#00e000;stroke-width:0.05mm;fill:none" r="5.499997" cx="0" cy="0"/>
    <circle transform="matrix(1,0,0,-1,242.649994,-218.25)" style="stroke:#00e000;stroke-width:0.05mm;fill:none" r="5.499997" cx="0" cy="0"/>
    <circle transform="matrix(1,0,0,-1,255.350006,-218.25)" style="stroke:#00e000;stroke-width:0.05mm;fill:none" r="5.499997" cx="0" cy="0"/>
    <circle transform="matrix(1,0,0,-1,268.049988,-218.25)" style="stroke:#00e000;stroke-width:0.05mm;fill:none" r="5.499997" cx="0" cy="0"/>
    <circle transform="matrix(1,0,0,-1,280.75,-218.25)" style="stroke:#00e000;stroke-width:0.05mm;fill:none" r="5.499997" cx="0" cy="0"/>
    <circle transform="matrix(1,0,0,-1,293.450012,-218.25)" style="stroke:#00e000;stroke-width:0.05mm;fill:none" r="5.499997" cx="0" cy="0"/>
    <circle transform="matrix(1,0,0,-1,306.150024,-218.25)" style="stroke:#00e000;stroke-width:0.05mm;fill:none" r="5.499997" cx="0" cy="0"/>
    <circle transform="matrix(1,0,0,-1,191.850006,-230.949951)" style="stroke:#00e000;stroke-width:0.05mm;fill:none" r="5.499997" cx="0" cy="0"/>
    <circle transform="matrix(1,0,0,-1,204.550003,-230.949951)" style="stroke:#00e000;stroke-width:0.05mm;fill:none" r="5.499997" cx="0" cy="0"/>
    <circle transform="matrix(1,0,0,-1,217.25,-230.949951)" style="stroke:#00e000;stroke-width:0.05mm;fill:none" r="5.499997" cx="0" cy="0"/>
    <circle transform="matrix(1,0,0,-1,229.949997,-230.949951)" style="stroke:#00e000;stroke-width:0.05mm;fill:none" r="5.499997" cx="0" cy="0"/>
    <circle transform="matrix(1,0,0,-1,242.649994,-230.949951)" style="stroke:#00e000;stroke-width:0.05mm;fill:none" r="5.499997" cx="0" cy="0"/>
    <circle transform="matrix(1,0,0,-1,255.350006,-230.949951)" style="stroke:#00e000;stroke-width:0.05mm;fill:none" r="5.499997" cx="0" cy="0"/>
    <circle transform="matrix(1,0,0,-1,268.049988,-230.949951)" style="stroke:#00e000;stroke-width:0.05mm;fill:none" r="5.499997" cx="0" cy="0"/>
    <circle transform="matrix(1,0,0,-1,280.75,-230.949951)" style="stroke:#00e000;stroke-width:0.05mm;fill:none" r="5.499997" cx="0" cy="0"/>
    <circle transform="matrix(1,0,0,-1,293.450012,-230.949951)" style="stroke:#00e000;stroke-width:0.05mm;fill:none" r="5.499997" cx="0" cy="0"/>
    <circle transform="matrix(1,0,0,-1,306.150024,-230.949951)" style="stroke:#00e000;stroke-width:0.05mm;fill:none" r="5.499997" cx="0" cy="0"/>
    <circle transform="matrix(1,0,0,-1,191.850006,-243.649963)" style="stroke:#00e000;stroke-width:0.05mm;fill:none" r="5.499997" cx="0" cy="0"/>
    <circle transform="matrix(1,0,0,-1,204.550003,-243.649963)" style="stroke:#00e000;stroke-width:0.05mm;fill:none" r="5.499997" cx="0" cy="0"/>
    <circle transform="matrix(1,0,0,-1,217.25,-243.649963)" style="stroke:#00e000;stroke-width:0.05mm;fill:none" r="5.499997" cx="0" cy="0"/>
    <circle transform="matrix(1,0,0,-1,229.949997,-243.649963)" style="stroke:#00e000;stroke-width:0.05mm;fill:none" r="5.499997" cx="0" cy="0"/>
    <circle transform="matrix(1,0,0,-1,242.649994,-243.649963)" style="stroke:#00e000;stroke-width:0.05mm;fill:none" r="5.499997" cx="0" cy="0"/>
    <circle transform="matrix(1,0,0,-1,255.350006,-243.649963)" style="stroke:#00e000;stroke-width:0.05mm;fill:none" r="5.499997" cx="0" cy="0"/>
    <circle transform="matrix(1,0,0,-1,268.049988,-243.649963)" style="stroke:#00e000;stroke-width:0.05mm;fill:none" r="5.499997" cx="0" cy="0"/>
    <circle transform="matrix(1,0,0,-1,280.75,-243.649963)" style="stroke:#00e000;stroke-width:0.05mm;fill:none" r="5.499997" cx="0" cy="0"/>
    <circle transform="matrix(1,0,0,-1,293.450012,-243.649963)" style="stroke:#00e000;stroke-width:0.05mm;fill:none" r="5.499997" cx="0" cy="0"/>
    <circle transform="matrix(1,0,0,-1,306.150024,-243.649963)" style="stroke:#00e000;stroke-width:0.05mm;fill:none" r="5.499997" cx="0" cy="0"/>
    <circle transform="matrix(1,0,0,-1,191.850006,-256.349976)" style="stroke:#00e000;stroke-width:0.05mm;fill:none" r="5.499997" cx="0" cy="0"/>
    <circle transform="matrix(1,0,0,-1,204.550003,-256.349976)" style="stroke:#00e000;stroke-width:0.05mm;fill:none" r="5.499997" cx="0" cy="0"/>
    <circle transform="matrix(1,0,0,-1,217.25,-256.349976)" style="stroke:#00e000;stroke-width:0.05mm;fill:none" r="5.499997" cx="0" cy="0"/>
    <circle transform="matrix(1,0,0,-1,229.949997,-256.349976)" style="stroke:#00e000;stroke-width:0.05mm;fill:none" r="5.499997" cx="0" cy="0"/>
    <circle transform="matrix(1,0,0,-1,242.649994,-256.349976)" style="stroke:#00e000;stroke-width:0.05mm;fill:none" r="5.499997" cx="0" cy="0"/>
    <circle transform="matrix(1,0,0,-1,255.350006,-256.349976)" style="stroke:#00e000;stroke-width:0.05mm;fill:none" r="5.499997" cx="0" cy="0"/>
    <circle transform="matrix(1,0,0,-1,268.049988,-256.349976)" style="stroke:#00e000;stroke-width:0.05mm;fill:none" r="5.499997" cx="0" cy="0"/>
    <circle transform="matrix(1,0,0,-1,280.75,-256.349976)" style="stroke:#00e000;stroke-width:0.05mm;fill:none" r="5.499997" cx="0" cy="0"/>
    <circle transform="matrix(1,0,0,-1,293.450012,-256.349976)" style="stroke:#00e000;stroke-width:0.05mm;fill:none" r="5.499997" cx="0" cy="0"/>
    <circle transform="matrix(1,0,0,-1,306.150024,-256.349976)" style="stroke:#00e000;stroke-width:0.05mm;fill:none" r="5.499997" cx="0" cy="0"/>
    <circle transform="matrix(1,0,0,-1,191.850006,-269.049988)" style="stroke:#00e000;stroke-width:0.05mm;fill:none" r="5.499997" cx="0" cy="0"/>
    <circle transform="matrix(1,0,0,-1,204.550003,-269.049988)" style="stroke:#00e000;stroke-width:0.05mm;fill:none" r="5.499997" cx="0" cy="0"/>
    <circle transform="matrix(1,0,0,-1,217.25,-269.049988)" style="stroke:#00e000;stroke-width:0.05mm;fill:none" r="5.499997" cx="0" cy="0"/>
    <circle transform="matrix(1,0,0,-1,229.949997,-269.049988)" style="stroke:#00e000;stroke-width:0.05mm;fill:none" r="5.499997" cx="0" cy="0"/>
    <circle transform="matrix(1,0,0,-1,242.649994,-269.049988)" style="stroke:#00e000;stroke-width:0.05mm;fill:none" r="5.499997" cx="0" cy="0"/>
    <circle transform="matrix(1,0,0,-1,255.350006,-269.049988)" style="stroke:#00e000;stroke-width:0.05mm;fill:none" r="5.499997" cx="0" cy="0"/>
    <circle transform="matrix(1,0,0,-1,268.049988,-269.049988)" style="stroke:#00e000;stroke-width:0.05mm;fill:none" r="5.499997" cx="0" cy="0"/>
    <circle transform="matrix(1,0,0,-1,280.75,-269.049988)" style="stroke:#00e000;stroke-width:0.05mm;fill:none" r="5.499997" cx="0" cy="0"/>
    <circle transform="matrix(1,0,0,-1,293.450012,-269.049988)" style="stroke:#00e000;stroke-width:0.05mm;fill:none" r="5.499997" cx="0" cy="0"/>
    <circle transform="matrix(1,0,0,-1,306.150024,-269.049988)" style="stroke:#00e000;stroke-width:0.05mm;fill:none" r="5.499997" cx="0" cy="0"/>
    <circle transform="matrix(1,0,0,-1,191.850006,-281.750061)" style="stroke:#00e000;stroke-width:0.05mm;fill:none" r="5.499997" cx="0" cy="0"/>
    <circle transform="matrix(1,0,0,-1,204.550003,-281.750061)" style="stroke:#00e000;stroke-width:0.05mm;fill:none" r="5.499997" cx="0" cy="0"/>
    <circle transform="matrix(1,0,0,-1,217.25,-281.750061)" style="stroke:#00e000;stroke-width:0.05mm;fill:none" r="5.499997" cx="0" cy="0"/>
    <circle transform="matrix(1,0,0,-1,229.949997,-281.750061)" style="stroke:#00e000;stroke-width:0.05mm;fill:none" r="5.499997" cx="0" cy="0"/>
    <circle transform="matrix(1,0,0,-1,242.649994,-281.750061)" style="stroke:#00e000;stroke-width:0.05mm;fill:none" r="5.499997" cx="0" cy="0"/>
    <circle transform="matrix(1,0,0,-1,255.350006,-281.750061)" style="stroke:#00e000;stroke-width:0.05mm;fill:none" r="5.499997" cx="0" cy="0"/>
    <circle transform="matrix(1,0,0,-1,268.049988,-281.750061)" style="stroke:#00e000;stroke-width:0.05mm;fill:none" r="5.499997" cx="0" cy="0"/>
    <circle transform="matrix(1,0,0,-1,280.75,-281.750061)" style="stroke:#00e000;stroke-width:0.05mm;fill:none" r="5.499997" cx="0" cy="0"/>
    <circle transform="matrix(1,0,0,-1,293.450012,-281.750061)" style="stroke:#00e000;stroke-width:0.05mm;fill:none" r="5.499997" cx="0" cy="0"/>
    <circle transform="matrix(1,0,0,-1,306.150024,-281.750061)" style="stroke:#00e000;stroke-width:0.05mm;fill:none" r="5.499997" cx="0" cy="0"/>
    <circle transform="matrix(1,0,0,-1,191.850006,-294.450012)" style="stroke:#00e000;stroke-width:0.05mm;fill:none" r="5.499997" cx="0" cy="0"/>
    <circle transform="matrix(1,0,0,-1,204.550003,-294.450012)" style="stroke:#00e000;stroke-width:0.05mm;fill:none" r="5.499997" cx="0" cy="0"/>
    <circle transform="matrix(1,0,0,-1,217.25,-294.450012)" style="stroke:#00e000;stroke-width:0.05mm;fill:none" r="5.499997" cx="0" cy="0"/>
    <circle transform="matrix(1,0,0,-1,229.949997,-294.450012)" style="stroke:#00e000;stroke-width:0.05mm;fill:none" r="5.499997" cx="0" cy="0"/>
    <circle transform="matrix(1,0,0,-1,242.649994,-294.450012)" style="stroke:#00e000;stroke-width:0.05mm;fill:none" r="5.499997" cx="0" cy="0"/>
    <circle transform="matrix(1,0,0,-1,255.350006,-294.450012)" style="stroke:#00e000;stroke-width:0.05mm;fill:none" r="5.499997" cx="0" cy="0"/>
    <circle transform="matrix(1,0,0,-1,268.049988,-294.450012)" style="stroke:#00e000;stroke-width:0.05mm;fill:none" r="5.499997" cx="0" cy="0"/>
    <circle transform="matrix(1,0,0,-1,280.75,-294.450012)" style="stroke:#00e000;stroke-width:0.05mm;fill:none" r="5.499997" cx="0" cy="0"/>
    <circle transform="matrix(1,0,0,-1,293.450012,-294.450012)" style="stroke:#00e000;stroke-width:0.05mm;fill:none" r="5.499997" cx="0" cy="0"/>
    <circle transform="matrix(1,0,0,-1,306.150024,-294.450012)" style="stroke:#00e000;stroke-width:0.05mm;fill:none" r="5.499997" cx="0" cy="0"/>
    <circle transform="matrix(1,0,0,-1,191.850006,-307.150024)" style="stroke:#00e000;stroke-width:0.05mm;fill:none" r="5.499997" cx="0" cy="0"/>
    <circle transform="matrix(1,0,0,-1,204.550003,-307.150024)" style="stroke:#00e000;stroke-width:0.05mm;fill:none" r="5.499997" cx="0" cy="0"/>
    <circle transform="matrix(1,0,0,-1,217.25,-307.150024)" style="stroke:#00e000;stroke-width:0.05mm;fill:none" r="5.499997" cx="0" cy="0"/>
    <circle transform="matrix(1,0,0,-1,229.949997,-307.150024)" style="stroke:#00e000;stroke-width:0.05mm;fill:none" r="5.499997" cx="0" cy="0"/>
    <circle transform="matrix(1,0,0,-1,242.649994,-307.150024)" style="stroke:#00e000;stroke-width:0.05mm;fill:none" r="5.499997" cx="0" cy="0"/>
    <circle transform="matrix(1,0,0,-1,255.350006,-307.150024)" style="stroke:#00e000;stroke-width:0.05mm;fill:none" r="5.499997" cx="0" cy="0"/>
    <circle transform="matrix(1,0,0,-1,268.049988,-307.150024)" style="stroke:#00e000;stroke-width:0.05mm;fill:none" r="5.499997" cx="0" cy="0"/>
    <circle transform="matrix(1,0,0,-1,280.75,-307.150024)" style="stroke:#00e000;stroke-width:0.05mm;fill:none" r="5.499997" cx="0" cy="0"/>
    <circle transform="matrix(1,0,0,-1,293.450012,-307.150024)" style="stroke:#00e000;stroke-width:0.05mm;fill:none" r="5.499997" cx="0" cy="0"/>
    <circle transform="matrix(1,0,0,-1,306.150024,-307.150024)" style="stroke:#00e000;stroke-width:0.05mm;fill:none" r="5.499997" cx="0" cy="0"/>
</svg>
