<?xml version="1.0" encoding="UTF-8"?>
<svg xmlns="http://www.w3.org/2000/svg" xmlns:xlink="http://www.w3.org/1999/xlink" width="508.000mm" height="508.000mm" viewBox="166.450073 -332.550049 507.999878 508.000000">
    <rect transform="matrix(1,0,0,-1,420.450012,-78.550034)" style="stroke:#00e000;stroke-width:0.05mm;fill:none" x="-253.999939" y="-254" width="507.999878" height="508"/>
    <circle transform="matrix(1,0,0,-1,191.850006,-307.150024)" style="stroke:#00e000;stroke-width:0.05mm;fill:none" r="5.499997" cx="0" cy="0"/>
    <circle transform="matrix(1,0,0,-1,242.650024,-307.150024)" style="stroke:#00e000;stroke-width:0.05mm;fill:none" r="5.499997" cx="0" cy="0"/>
    <circle transform="matrix(1,0,0,-1,293.450012,-307.150024)" style="stroke:#00e000;stroke-width:0.05mm;fill:none" r="5.499997" cx="0" cy="0"/>
    <circle transform="matrix(1,0,0,-1,344.25,-307.150024)" style="stroke:#00e000;stroke-width:0.05mm;fill:none" r="5.499997" cx="0" cy="0"/>
    <circle transform="matrix(1,0,0,-1,395.049988,-307.150024)" style="stroke:#00e000;stroke-width:0.05mm;fill:none" r="5.499997" cx="0" cy="0"/>
    <circle transform="matrix(1,0,0,-1,445.850006,-307.150024)" style="stroke:#00e000;stroke-width:0.05mm;fill:none" r="5.499997" cx="0" cy="0"/>
    <circle transform="matrix(1,0,0,-1,496.649994,-307.150024)" style="stroke:#00e000;stroke-width:0.05mm;fill:none" r="5.499997" cx="0" cy="0"/>
    <circle transform="matrix(1,0,0,-1,547.450012,-307.150024)" style="stroke:#00e000;stroke-width:0.05mm;fill:none" r="5.499997" cx="0" cy="0"/>
    <circle transform="matrix(1,0,0,-1,598.25,-307.150024)" style="stroke:#00e000;stroke-width:0.05mm;fill:none" r="5.499997" cx="0" cy="0"/>
    <circle transform="matrix(1,0,0,-1,649.049988,-307.150024)" style="stroke:#00e000;stroke-width:0.05mm;fill:none" r="5.499997" cx="0" cy="0"/>
    <circle transform="matrix(1,0,0,-1,191.850006,-256.350037)" style="stroke:#00e000;stroke-width:0.05mm;fill:none" r="5.499997" cx="0" cy="0"/>
    <circle transform="matrix(1,0,0,-1,242.650024,-256.350037)" style="stroke:#00e000;stroke-width:0.05mm;fill:none" r="5.499997" cx="0" cy="0"/>
    <circle transform="matrix(1,0,0,-1,293.450012,-256.350037)" style="stroke:#00e000;stroke-width:0.05mm;fill:none" r="5.499997" cx="0" cy="0"/>
    <circle transform="matrix(1,0,0,-1,344.25,-256.350037)" style="stroke:#00e000;stroke-width:0.05mm;fill:none" r="5.499997" cx="0" cy="0"/>
    <circle transform="matrix(1,0,0,-1,395.049988,-256.350037)" style="stroke:#00e000;stroke-width:0.05mm;fill:none" r="5.499997" cx="0" cy="0"/>
    <circle transform="matrix(1,0,0,-1,445.850006,-256.350037)" style="stroke:#00e000;stroke-width:0.05mm;fill:none" r="5.499997" cx="0" cy="0"/>
    <circle transform="matrix(1,0,0,-1,496.649994,-256.350037)" style="stroke:#00e000;stroke-width:0.05mm;fill:none" r="5.499997" cx="0" cy="0"/>
    <circle transform="matrix(1,0,0,-1,547.450012,-256.350037)" style="stroke:#00e000;stroke-width:0.05mm;fill:none" r="5.499997" cx="0" cy="0"/>
    <circle transform="matrix(1,0,0,-1,598.25,-256.350037)" style="stroke:#00e000;stroke-width:0.05mm;fill:none" r="5.499997" cx="0" cy="0"/>
    <circle transform="matrix(1,0,0,-1,649.049988,-256.350037)" style="stroke:#00e000;stroke-width:0.05mm;fill:none" r="5.499997" cx="0" cy="0"/>
    <circle transform="matrix(1,0,0,-1,191.850006,-205.550018)" style="stroke:#00e000;stroke-width:0.05mm;fill:none" r="5.499997" cx="0" cy="0"/>
    <circle transform="matrix(1,0,0,-1,242.650024,-205.550018)" style="stroke:#00e000;stroke-width:0.05mm;fill:none" r="5.499997" cx="0" cy="0"/>
    <circle transform="matrix(1,0,0,-1,293.450012,-205.550018)" style="stroke:#00e000;stroke-width:0.05mm;fill:none" r="5.499997" cx="0" cy="0"/>
    <circle transform="matrix(1,0,0,-1,344.25,-205.550018)" style="stroke:#00e000;stroke-width:0.05mm;fill:none" r="5.499997" cx="0" cy="0"/>
    <circle transform="matrix(1,0,0,-1,395.049988,-205.550018)" style="stroke:#00e000;stroke-width:0.05mm;fill:none" r="5.499997" cx="0" cy="0"/>
    <circle transform="matrix(1,0,0,-1,445.850006,-205.550018)" style="stroke:#00e000;stroke-width:0.05mm;fill:none" r="5.499997" cx="0" cy="0"/>
    <circle transform="matrix(1,0,0,-1,496.649994,-205.550018)" style="stroke:#00e000;stroke-width:0.05mm;fill:none" r="5.499997" cx="0" cy="0"/>
    <circle transform="matrix(1,0,0,-1,547.450012,-205.550018)" style="stroke:#00e000;stroke-width:0.05mm;fill:none" r="5.499997" cx="0" cy="0"/>
    <circle transform="matrix(1,0,0,-1,598.25,-205.550018)" style="stroke:#00e000;stroke-width:0.05mm;fill:none" r="5.499997" cx="0" cy="0"/>
    <circle transform="matrix(1,0,0,-1,649.049988,-205.550018)" style="stroke:#00e000;stroke-width:0.05mm;fill:none" r="5.499997" cx="0" cy="0"/>
    <circle transform="matrix(1,0,0,-1,191.850006,-154.750031)" style="stroke:#00e000;stroke-width:0.05mm;fill:none" r="5.499997" cx="0" cy="0"/>
    <circle transform="matrix(1,0,0,-1,242.650024,-154.750031)" style="stroke:#00e000;stroke-width:0.05mm;fill:none" r="5.499997" cx="0" cy="0"/>
    <circle transform="matrix(1,0,0,-1,293.450012,-154.750031)" style="stroke:#00e000;stroke-width:0.05mm;fill:none" r="5.499997" cx="0" cy="0"/>
    <circle transform="matrix(1,0,0,-1,344.25,-154.750031)" style="stroke:#00e000;stroke-width:0.05mm;fill:none" r="5.499997" cx="0" cy="0"/>
    <circle transform="matrix(1,0,0,-1,395.049988,-154.750031)" style="stroke:#00e000;stroke-width:0.05mm;fill:none" r="5.499997" cx="0" cy="0"/>
    <circle transform="matrix(1,0,0,-1,445.850006,-154.750031)" style="stroke:#00e000;stroke-width:0.05mm;fill:none" r="5.499997" cx="0" cy="0"/>
    <circle transform="matrix(1,0,0,-1,496.649994,-154.750031)" style="stroke:#00e000;stroke-width:0.05mm;fill:none" r="5.499997" cx="0" cy="0"/>
    <circle transform="matrix(1,0,0,-1,547.450012,-154.750031)" style="stroke:#00e000;stroke-width:0.05mm;fill:none" r="5.499997" cx="0" cy="0"/>
    <circle transform="matrix(1,0,0,-1,598.25,-154.750031)" style="stroke:#00e000;stroke-width:0.05mm;fill:none" r="5.499997" cx="0" cy="0"/>
    <circle transform="matrix(1,0,0,-1,649.049988,-154.750031)" style="stroke:#00e000;stroke-width:0.05mm;fill:none" r="5.499997" cx="0" cy="0"/>
    <circle transform="matrix(1,0,0,-1,191.850006,-103.950027)" style="stroke:#00e000;stroke-width:0.05mm;fill:none" r="5.499997" cx="0" cy="0"/>
    <circle transform="matrix(1,0,0,-1,242.650024,-103.950027)" style="stroke:#00e000;stroke-width:0.05mm;fill:none" r="5.499997" cx="0" cy="0"/>
    <circle transform="matrix(1,0,0,-1,293.450012,-103.950027)" style="stroke:#00e000;stroke-width:0.05mm;fill:none" r="5.499997" cx="0" cy="0"/>
    <circle transform="matrix(1,0,0,-1,344.25,-103.950027)" style="stroke:#00e000;stroke-width:0.05mm;fill:none" r="5.499997" cx="0" cy="0"/>
    <circle transform="matrix(1,0,0,-1,395.049988,-103.950027)" style="stroke:#00e000;stroke-width:0.05mm;fill:none" r="5.499997" cx="0" cy="0"/>
    <circle transform="matrix(1,0,0,-1,445.850006,-103.950027)" style="stroke:#00e000;stroke-width:0.05mm;fill:none" r="5.499997" cx="0" cy="0"/>
    <circle transform="matrix(1,0,0,-1,496.649994,-103.950027)" style="stroke:#00e000;stroke-width:0.05mm;fill:none" r="5.499997" cx="0" cy="0"/>
    <circle transform="matrix(1,0,0,-1,547.450012,-103.950027)" style="stroke:#00e000;stroke-width:0.05mm;fill:none" r="5.499997" cx="0" cy="0"/>
    <circle transform="matrix(1,0,0,-1,598.25,-103.950027)" style="stroke:#00e000;stroke-width:0.05mm;fill:none" r="5.499997" cx="0" cy="0"/>
    <circle transform="matrix(1,0,0,-1,649.049988,-103.950027)" style="stroke:#00e000;stroke-width:0.05mm;fill:none" r="5.499997" cx="0" cy="0"/>
    <circle transform="matrix(1,0,0,-1,191.850006,-53.150024)" style="stroke:#00e000;stroke-width:0.05mm;fill:none" r="5.499997" cx="0" cy="0"/>
    <circle transform="matrix(1,0,0,-1,242.650024,-53.150024)" style="stroke:#00e000;stroke-width:0.05mm;fill:none" r="5.499997" cx="0" cy="0"/>
    <circle transform="matrix(1,0,0,-1,293.450012,-53.150024)" style="stroke:#00e000;stroke-width:0.05mm;fill:none" r="5.499997" cx="0" cy="0"/>
    <circle transform="matrix(1,0,0,-1,344.25,-53.150024)" style="stroke:#00e000;stroke-width:0.05mm;fill:none" r="5.499997" cx="0" cy="0"/>
    <circle transform="matrix(1,0,0,-1,395.049988,-53.150024)" style="stroke:#00e000;stroke-width:0.05mm;fill:none" r="5.499997" cx="0" cy="0"/>
    <circle transform="matrix(1,0,0,-1,445.850006,-53.150024)" style="stroke:#00e000;stroke-width:0.05mm;fill:none" r="5.499997" cx="0" cy="0"/>
    <circle transform="matrix(1,0,0,-1,496.649994,-53.150024)" style="stroke:#00e000;stroke-width:0.05mm;fill:none" r="5.499997" cx="0" cy="0"/>
    <circle transform="matrix(1,0,0,-1,547.450012,-53.150024)" style="stroke:#00e000;stroke-width:0.05mm;fill:none" r="5.499997" cx="0" cy="0"/>
    <circle transform="matrix(1,0,0,-1,598.25,-53.150024)" style="stroke:#00e000;stroke-width:0.05mm;fill:none" r="5.499997" cx="0" cy="0"/>
    <circle transform="matrix(1,0,0,-1,649.049988,-53.150024)" style="stroke:#00e000;stroke-width:0.05mm;fill:none" r="5.499997" cx="0" cy="0"/>
    <circle transform="matrix(1,0,0,-1,191.850006,-2.350037)" style="stroke:#00e000;stroke-width:0.05mm;fill:none" r="5.499997" cx="0" cy="0"/>
    <circle transform="matrix(1,0,0,-1,242.650024,-2.350037)" style="stroke:#00e000;stroke-width:0.05mm;fill:none" r="5.499997" cx="0" cy="0"/>
    <circle transform="matrix(1,0,0,-1,293.450012,-2.350037)" style="stroke:#00e000;stroke-width:0.05mm;fill:none" r="5.499997" cx="0" cy="0"/>
    <circle transform="matrix(1,0,0,-1,344.25,-2.350037)" style="stroke:#00e000;stroke-width:0.05mm;fill:none" r="5.499997" cx="0" cy="0"/>
    <circle transform="matrix(1,0,0,-1,395.049988,-2.350037)" style="stroke:#00e000;stroke-width:0.05mm;fill:none" r="5.499997" cx="0" cy="0"/>
    <circle transform="matrix(1,0,0,-1,445.850006,-2.350037)" style="stroke:#00e000;stroke-width:0.05mm;fill:none" r="5.499997" cx="0" cy="0"/>
    <circle transform="matrix(1,0,0,-1,496.649994,-2.350037)" style="stroke:#00e000;stroke-width:0.05mm;fill:none" r="5.499997" cx="0" cy="0"/>
    <circle transform="matrix(1,0,0,-1,547.450012,-2.350037)" style="stroke:#00e000;stroke-width:0.05mm;fill:none" r="5.499997" cx="0" cy="0"/>
    <circle transform="matrix(1,0,0,-1,598.25,-2.350037)" style="stroke:#00e000;stroke-width:0.05mm;fill:none" r="5.499997" cx="0" cy="0"/>
    <circle transform="matrix(1,0,0,-1,649.049988,-2.350037)" style="stroke:#00e000;stroke-width:0.05mm;fill:none" r="5.499997" cx="0" cy="0"/>
    <circle transform="matrix(1,0,0,-1,191.850006,48.449982)" style="stroke:#00e000;stroke-width:0.05mm;fill:none" r="5.499997" cx="0" cy="0"/>
    <circle transform="matrix(1,0,0,-1,242.650024,48.449982)" style="stroke:#00e000;stroke-width:0.05mm;fill:none" r="5.499997" cx="0" cy="0"/>
    <circle transform="matrix(1,0,0,-1,293.450012,48.449982)" style="stroke:#00e000;stroke-width:0.05mm;fill:none" r="5.499997" cx="0" cy="0"/>
    <circle transform="matrix(1,0,0,-1,344.25,48.449982)" style="stroke:#00e000;stroke-width:0.05mm;fill:none" r="5.499997" cx="0" cy="0"/>
    <circle transform="matrix(1,0,0,-1,395.049988,48.449982)" style="stroke:#00e000;stroke-width:0.05mm;fill:none" r="5.499997" cx="0" cy="0"/>
    <circle transform="matrix(1,0,0,-1,445.850006,48.449982)" style="stroke:#00e000;stroke-width:0.05mm;fill:none" r="5.499997" cx="0" cy="0"/>
    <circle transform="matrix(1,0,0,-1,496.649994,48.449982)" style="stroke:#00e000;stroke-width:0.05mm;fill:none" r="5.499997" cx="0" cy="0"/>
    <circle transform="matrix(1,0,0,-1,547.450012,48.449982)" style="stroke:#00e000;stroke-width:0.05mm;fill:none" r="5.499997" cx="0" cy="0"/>
    <circle transform="matrix(1,0,0,-1,598.25,48.449982)" style="stroke:#00e000;stroke-width:0.05mm;fill:none" r="5.499997" cx="0" cy="0"/>
    <circle transform="matrix(1,0,0,-1,649.049988,48.449982)" style="stroke:#00e000;stroke-width:0.05mm;fill:none" r="5.499997" cx="0" cy="0"/>
    <circle transform="matrix(1,0,0,-1,191.850006,99.249969)" style="stroke:#00e000;stroke-width:0.05mm;fill:none" r="5.499997" cx="0" cy="0"/>
    <circle transform="matrix(1,0,0,-1,242.650024,99.249969)" style="stroke:#00e000;stroke-width:0.05mm;fill:none" r="5.499997" cx="0" cy="0"/>
    <circle transform="matrix(1,0,0,-1,293.450012,99.249969)" style="stroke:#00e000;stroke-width:0.05mm;fill:none" r="5.499997" cx="0" cy="0"/>
    <circle transform="matrix(1,0,0,-1,344.25,99.249969)" style="stroke:#00e000;stroke-width:0.05mm;fill:none" r="5.499997" cx="0" cy="0"/>
    <circle transform="matrix(1,0,0,-1,395.049988,99.249969)" style="stroke:#00e000;stroke-width:0.05mm;fill:none" r="5.499997" cx="0" cy="0"/>
    <circle transform="matrix(1,0,0,-1,445.850006,99.249969)" style="stroke:#00e000;stroke-width:0.05mm;fill:none" r="5.499997" cx="0" cy="0"/>
    <circle transform="matrix(1,0,0,-1,496.649994,99.249969)" style="stroke:#00e000;stroke-width:0.05mm;fill:none" r="5.499997" cx="0" cy="0"/>
    <circle transform="matrix(1,0,0,-1,547.450012,99.249969)" style="stroke:#00e000;stroke-width:0.05mm;fill:none" r="5.499997" cx="0" cy="0"/>
    <circle transform="matrix(1,0,0,-1,598.25,99.249969)" style="stroke:#00e000;stroke-width:0.05mm;fill:none" r="5.499997" cx="0" cy="0"/>
    <circle transform="matrix(1,0,0,-1,649.049988,99.249969)" style="stroke:#00e000;stroke-width:0.05mm;fill:none" r="5.499997" cx="0" cy="0"/>
    <circle transform="matrix(1,0,0,-1,191.850006,150.049957)" style="stroke:#00e000;stroke-width:0.05mm;fill:none" r="5.499997" cx="0" cy="0"/>
    <circle transform="matrix(1,0,0,-1,242.650024,150.049957)" style="stroke:#00e000;stroke-width:0.05mm;fill:none" r="5.499997" cx="0" cy="0"/>
    <circle transform="matrix(1,0,0,-1,293.450012,150.049957)" style="stroke:#00e000;stroke-width:0.05mm;fill:none" r="5.499997" cx="0" cy="0"/>
    <circle transform="matrix(1,0,0,-1,344.25,150.049957)" style="stroke:#00e000;stroke-width:0.05mm;fill:none" r="5.499997" cx="0" cy="0"/>
    <circle transform="matrix(1,0,0,-1,395.049988,150.049957)" style="stroke:#00e000;stroke-width:0.05mm;fill:none" r="5.499997" cx="0" cy="0"/>
    <circle transform="matrix(1,0,0,-1,445.850006,150.049957)" style="stroke:#00e000;stroke-width:0.05mm;fill:none" r="5.499997" cx="0" cy="0"/>
    <circle transform="matrix(1,0,0,-1,496.649994,150.049957)" style="stroke:#00e000;stroke-width:0.05mm;fill:none" r="5.499997" cx="0" cy="0"/>
    <circle transform="matrix(1,0,0,-1,547.450012,150.049957)" style="stroke:#00e000;stroke-width:0.05mm;fill:none" r="5.499997" cx="0" cy="0"/>
    <circle transform="matrix(1,0,0,-1,598.25,150.049957)" style="stroke:#00e000;stroke-width:0.05mm;fill:none" r="5.499997" cx="0" cy="0"/>
    <circle transform="matrix(1,0,0,-1,649.049988,150.049957)" style="stroke:#00e000;stroke-width:0.05mm;fill:none" r="5.499997" cx="0" cy="0"/>
</svg>
