<?xml version="1.0" encoding="UTF-8"?>
<svg xmlns="http://www.w3.org/2000/svg" xmlns:xlink="http://www.w3.org/1999/xlink" width="254.000mm" height="254.000mm" viewBox="179.150055 -319.850037 253.999939 254.000000">
    <rect transform="matrix(1,0,0,-1,306.150024,-192.850037)" style="stroke:#00e000;stroke-width:0.05mm;fill:none" x="-126.999969" y="-127" width="253.999939" height="254"/>
    <circle transform="matrix(1,0,0,-1,191.850006,-307.150024)" style="stroke:#00e000;stroke-width:0.05mm;fill:none" r="5.499997" cx="0" cy="0"/>
    <circle transform="matrix(1,0,0,-1,217.25,-307.150024)" style="stroke:#00e000;stroke-width:0.05mm;fill:none" r="5.499997" cx="0" cy="0"/>
    <circle transform="matrix(1,0,0,-1,242.650009,-307.150024)" style="stroke:#00e000;stroke-width:0.05mm;fill:none" r="5.499997" cx="0" cy="0"/>
    <circle transform="matrix(1,0,0,-1,268.049988,-307.150024)" style="stroke:#00e000;stroke-width:0.05mm;fill:none" r="5.499997" cx="0" cy="0"/>
    <circle transform="matrix(1,0,0,-1,293.450012,-307.150024)" style="stroke:#00e000;stroke-width:0.05mm;fill:none" r="5.499997" cx="0" cy="0"/>
    <circle transform="matrix(1,0,0,-1,318.850006,-307.150024)" style="stroke:#00e000;stroke-width:0.05mm;fill:none" r="5.499997" cx="0" cy="0"/>
    <circle transform="matrix(1,0,0,-1,344.25,-307.150024)" style="stroke:#00e000;stroke-width:0.05mm;fill:none" r="5.499997" cx="0" cy="0"/>
    <circle transform="matrix(1,0,0,-1,369.650024,-307.150024)" style="stroke:#00e000;stroke-width:0.05mm;fill:none" r="5.499997" cx="0" cy="0"/>
    <circle transform="matrix(1,0,0,-1,395.049988,-307.150024)" style="stroke:#00e000;stroke-width:0.05mm;fill:none" r="5.499997" cx="0" cy="0"/>
    <circle transform="matrix(1,0,0,-1,420.450012,-307.150024)" style="stroke:#00e000;stroke-width:0.05mm;fill:none" r="5.499997" cx="0" cy="0"/>
    <circle transform="matrix(1,0,0,-1,191.850006,-281.750031)" style="stroke:#00e000;stroke-width:0.05mm;fill:none" r="5.499997" cx="0" cy="0"/>
    <circle transform="matrix(1,0,0,-1,217.25,-281.750031)" style="stroke:#00e000;stroke-width:0.05mm;fill:none" r="5.499997" cx="0" cy="0"/>
    <circle transform="matrix(1,0,0,-1,242.650009,-281.750031)" style="stroke:#00e000;stroke-width:0.05mm;fill:none" r="5.499997" cx="0" cy="0"/>
    <circle transform="matrix(1,0,0,-1,268.049988,-281.750031)" style="stroke:#00e000;stroke-width:0.05mm;fill:none" r="5.499997" cx="0" cy="0"/>
    <circle transform="matrix(1,0,0,-1,293.450012,-281.750031)" style="stroke:#00e000;stroke-width:0.05mm;fill:none" r="5.499997" cx="0" cy="0"/>
    <circle transform="matrix(1,0,0,-1,318.850006,-281.750031)" style="stroke:#00e000;stroke-width:0.05mm;fill:none" r="5.499997" cx="0" cy="0"/>
    <circle transform="matrix(1,0,0,-1,344.25,-281.750031)" style="stroke:#00e000;stroke-width:0.05mm;fill:none" r="5.499997" cx="0" cy="0"/>
    <circle transform="matrix(1,0,0,-1,369.650024,-281.750031)" style="stroke:#00e000;stroke-width:0.05mm;fill:none" r="5.499997" cx="0" cy="0"/>
    <circle transform="matrix(1,0,0,-1,395.049988,-281.750031)" style="stroke:#00e000;stroke-width:0.05mm;fill:none" r="5.499997" cx="0" cy="0"/>
    <circle transform="matrix(1,0,0,-1,420.450012,-281.750031)" style="stroke:#00e000;stroke-width:0.05mm;fill:none" r="5.499997" cx="0" cy="0"/>
    <circle transform="matrix(1,0,0,-1,191.850006,-256.350037)" style="stroke:#00e000;stroke-width:0.05mm;fill:none" r="5.499997" cx="0" cy="0"/>
    <circle transform="matrix(1,0,0,-1,217.25,-256.350037)" style="stroke:#00e000;stroke-width:0.05mm;fill:none" r="5.499997" cx="0" cy="0"/>
    <circle transform="matrix(1,0,0,-1,242.650009,-256.350037)" style="stroke:#00e000;stroke-width:0.05mm;fill:none" r="5.499997" cx="0" cy="0"/>
    <circle transform="matrix(1,0,0,-1,268.049988,-256.350037)" style="stroke:#00e000;stroke-width:0.05mm;fill:none" r="5.499997" cx="0" cy="0"/>
    <circle transform="matrix(1,0,0,-1,293.450012,-256.350037)" style="stroke:#00e000;stroke-width:0.05mm;fill:none" r="5.499997" cx="0" cy="0"/>
    <circle transform="matrix(1,0,0,-1,318.850006,-256.350037)" style="stroke:#00e000;stroke-width:0.05mm;fill:none" r="5.499997" cx="0" cy="0"/>
    <circle transform="matrix(1,0,0,-1,344.25,-256.350037)" style="stroke:#00e000;stroke-width:0.05mm;fill:none" r="5.499997" cx="0" cy="0"/>
    <circle transform="matrix(1,0,0,-1,369.650024,-256.350037)" style="stroke:#00e000;stroke-width:0.05mm;fill:none" r="5.499997" cx="0" cy="0"/>
    <circle transform="matrix(1,0,0,-1,395.049988,-256.350037)" style="stroke:#00e000;stroke-width:0.05mm;fill:none" r="5.499997" cx="0" cy="0"/>
    <circle transform="matrix(1,0,0,-1,420.450012,-256.350037)" style="stroke:#00e000;stroke-width:0.05mm;fill:none" r="5.499997" cx="0" cy="0"/>
    <circle transform="matrix(1,0,0,-1,191.850006,-230.950027)" style="stroke:#00e000;stroke-width:0.05mm;fill:none" r="5.499997" cx="0" cy="0"/>
    <circle transform="matrix(1,0,0,-1,217.25,-230.950027)" style="stroke:#00e000;stroke-width:0.05mm;fill:none" r="5.499997" cx="0" cy="0"/>
    <circle transform="matrix(1,0,0,-1,242.650009,-230.950027)" style="stroke:#00e000;stroke-width:0.05mm;fill:none" r="5.499997" cx="0" cy="0"/>
    <circle transform="matrix(1,0,0,-1,268.049988,-230.950027)" style="stroke:#00e000;stroke-width:0.05mm;fill:none" r="5.499997" cx="0" cy="0"/>
    <circle transform="matrix(1,0,0,-1,293.450012,-230.950027)" style="stroke:#00e000;stroke-width:0.05mm;fill:none" r="5.499997" cx="0" cy="0"/>
    <circle transform="matrix(1,0,0,-1,318.850006,-230.950027)" style="stroke:#00e000;stroke-width:0.05mm;fill:none" r="5.499997" cx="0" cy="0"/>
    <circle transform="matrix(1,0,0,-1,344.25,-230.950027)" style="stroke:#00e000;stroke-width:0.05mm;fill:none" r="5.499997" cx="0" cy="0"/>
    <circle transform="matrix(1,0,0,-1,369.650024,-230.950027)" style="stroke:#00e000;stroke-width:0.05mm;fill:none" r="5.499997" cx="0" cy="0"/>
    <circle transform="matrix(1,0,0,-1,395.049988,-230.950027)" style="stroke:#00e000;stroke-width:0.05mm;fill:none" r="5.499997" cx="0" cy="0"/>
    <circle transform="matrix(1,0,0,-1,420.450012,-230.950027)" style="stroke:#00e000;stroke-width:0.05mm;fill:none" r="5.499997" cx="0" cy="0"/>
    <circle transform="matrix(1,0,0,-1,191.850006,-205.550018)" style="stroke:#00e000;stroke-width:0.05mm;fill:none" r="5.499997" cx="0" cy="0"/>
    <circle transform="matrix(1,0,0,-1,217.25,-205.550018)" style="stroke:#00e000;stroke-width:0.05mm;fill:none" r="5.499997" cx="0" cy="0"/>
    <circle transform="matrix(1,0,0,-1,242.650009,-205.550018)" style="stroke:#00e000;stroke-width:0.05mm;fill:none" r="5.499997" cx="0" cy="0"/>
    <circle transform="matrix(1,0,0,-1,268.049988,-205.550018)" style="stroke:#00e000;stroke-width:0.05mm;fill:none" r="5.499997" cx="0" cy="0"/>
    <circle transform="matrix(1,0,0,-1,293.450012,-205.550018)" style="stroke:#00e000;stroke-width:0.05mm;fill:none" r="5.499997" cx="0" cy="0"/>
    <circle transform="matrix(1,0,0,-1,318.850006,-205.550018)" style="stroke:#00e000;stroke-width:0.05mm;fill:none" r="5.499997" cx="0" cy="0"/>
    <circle transform="matrix(1,0,0,-1,344.25,-205.550018)" style="stroke:#00e000;stroke-width:0.05mm;fill:none" r="5.499997" cx="0" cy="0"/>
    <circle transform="matrix(1,0,0,-1,369.650024,-205.550018)" style="stroke:#00e000;stroke-width:0.05mm;fill:none" r="5.499997" cx="0" cy="0"/>
    <circle transform="matrix(1,0,0,-1,395.049988,-205.550018)" style="stroke:#00e000;stroke-width:0.05mm;fill:none" r="5.499997" cx="0" cy="0"/>
    <circle transform="matrix(1,0,0,-1,420.450012,-205.550018)" style="stroke:#00e000;stroke-width:0.05mm;fill:none" r="5.499997" cx="0" cy="0"/>
    <circle transform="matrix(1,0,0,-1,191.850006,-180.150024)" style="stroke:#00e000;stroke-width:0.05mm;fill:none" r="5.499997" cx="0" cy="0"/>
    <circle transform="matrix(1,0,0,-1,217.25,-180.150024)" style="stroke:#00e000;stroke-width:0.05mm;fill:none" r="5.499997" cx="0" cy="0"/>
    <circle transform="matrix(1,0,0,-1,242.650009,-180.150024)" style="stroke:#00e000;stroke-width:0.05mm;fill:none" r="5.499997" cx="0" cy="0"/>
    <circle transform="matrix(1,0,0,-1,268.049988,-180.150024)" style="stroke:#00e000;stroke-width:0.05mm;fill:none" r="5.499997" cx="0" cy="0"/>
    <circle transform="matrix(1,0,0,-1,293.450012,-180.150024)" style="stroke:#00e000;stroke-width:0.05mm;fill:none" r="5.499997" cx="0" cy="0"/>
    <circle transform="matrix(1,0,0,-1,318.850006,-180.150024)" style="stroke:#00e000;stroke-width:0.05mm;fill:none" r="5.499997" cx="0" cy="0"/>
    <circle transform="matrix(1,0,0,-1,344.25,-180.150024)" style="stroke:#00e000;stroke-width:0.05mm;fill:none" r="5.499997" cx="0" cy="0"/>
    <circle transform="matrix(1,0,0,-1,369.650024,-180.150024)" style="stroke:#00e000;stroke-width:0.05mm;fill:none" r="5.499997" cx="0" cy="0"/>
    <circle transform="matrix(1,0,0,-1,395.049988,-180.150024)" style="stroke:#00e000;stroke-width:0.05mm;fill:none" r="5.499997" cx="0" cy="0"/>
    <circle transform="matrix(1,0,0,-1,420.450012,-180.150024)" style="stroke:#00e000;stroke-width:0.05mm;fill:none" r="5.499997" cx="0" cy="0"/>
    <circle transform="matrix(1,0,0,-1,191.850006,-154.750031)" style="stroke:#00e000;stroke-width:0.05mm;fill:none" r="5.499997" cx="0" cy="0"/>
    <circle transform="matrix(1,0,0,-1,217.25,-154.750031)" style="stroke:#00e000;stroke-width:0.05mm;fill:none" r="5.499997" cx="0" cy="0"/>
    <circle transform="matrix(1,0,0,-1,242.650009,-154.750031)" style="stroke:#00e000;stroke-width:0.05mm;fill:none" r="5.499997" cx="0" cy="0"/>
    <circle transform="matrix(1,0,0,-1,268.049988,-154.750031)" style="stroke:#00e000;stroke-width:0.05mm;fill:none" r="5.499997" cx="0" cy="0"/>
    <circle transform="matrix(1,0,0,-1,293.450012,-154.750031)" style="stroke:#00e000;stroke-width:0.05mm;fill:none" r="5.499997" cx="0" cy="0"/>
    <circle transform="matrix(1,0,0,-1,318.850006,-154.750031)" style="stroke:#00e000;stroke-width:0.05mm;fill:none" r="5.499997" cx="0" cy="0"/>
    <circle transform="matrix(1,0,0,-1,344.25,-154.750031)" style="stroke:#00e000;stroke-width:0.05mm;fill:none" r="5.499997" cx="0" cy="0"/>
    <circle transform="matrix(1,0,0,-1,369.650024,-154.750031)" style="stroke:#00e000;stroke-width:0.05mm;fill:none" r="5.499997" cx="0" cy="0"/>
    <circle transform="matrix(1,0,0,-1,395.049988,-154.750031)" style="stroke:#00e000;stroke-width:0.05mm;fill:none" r="5.499997" cx="0" cy="0"/>
    <circle transform="matrix(1,0,0,-1,420.450012,-154.750031)" style="stroke:#00e000;stroke-width:0.05mm;fill:none" r="5.499997" cx="0" cy="0"/>
    <circle transform="matrix(1,0,0,-1,191.850006,-129.350021)" style="stroke:#00e000;stroke-width:0.05mm;fill:none" r="5.499997" cx="0" cy="0"/>
    <circle transform="matrix(1,0,0,-1,217.25,-129.350021)" style="stroke:#00e000;stroke-width:0.05mm;fill:none" r="5.499997" cx="0" cy="0"/>
    <circle transform="matrix(1,0,0,-1,242.650009,-129.350021)" style="stroke:#00e000;stroke-width:0.05mm;fill:none" r="5.499997" cx="0" cy="0"/>
    <circle transform="matrix(1,0,0,-1,268.049988,-129.350021)" style="stroke:#00e000;stroke-width:0.05mm;fill:none" r="5.499997" cx="0" cy="0"/>
    <circle transform="matrix(1,0,0,-1,293.450012,-129.350021)" style="stroke:#00e000;stroke-width:0.05mm;fill:none" r="5.499997" cx="0" cy="0"/>
    <circle transform="matrix(1,0,0,-1,318.850006,-129.350021)" style="stroke:#00e000;stroke-width:0.05mm;fill:none" r="5.499997" cx="0" cy="0"/>
    <circle transform="matrix(1,0,0,-1,344.25,-129.350021)" style="stroke:#00e000;stroke-width:0.05mm;fill:none" r="5.499997" cx="0" cy="0"/>
    <circle transform="matrix(1,0,0,-1,369.650024,-129.350021)" style="stroke:#00e000;stroke-width:0.05mm;fill:none" r="5.499997" cx="0" cy="0"/>
    <circle transform="matrix(1,0,0,-1,395.049988,-129.350021)" style="stroke:#00e000;stroke-width:0.05mm;fill:none" r="5.499997" cx="0" cy="0"/>
    <circle transform="matrix(1,0,0,-1,420.450012,-129.350021)" style="stroke:#00e000;stroke-width:0.05mm;fill:none" r="5.499997" cx="0" cy="0"/>
    <circle transform="matrix(1,0,0,-1,191.850006,-103.950027)" style="stroke:#00e000;stroke-width:0.05mm;fill:none" r="5.499997" cx="0" cy="0"/>
    <circle transform="matrix(1,0,0,-1,217.25,-103.950027)" style="stroke:#00e000;stroke-width:0.05mm;fill:none" r="5.499997" cx="0" cy="0"/>
    <circle transform="matrix(1,0,0,-1,242.650009,-103.950027)" style="stroke:#00e000;stroke-width:0.05mm;fill:none" r="5.499997" cx="0" cy="0"/>
    <circle transform="matrix(1,0,0,-1,268.049988,-103.950027)" style="stroke:#00e000;stroke-width:0.05mm;fill:none" r="5.499997" cx="0" cy="0"/>
    <circle transform="matrix(1,0,0,-1,293.450012,-103.950027)" style="stroke:#00e000;stroke-width:0.05mm;fill:none" r="5.499997" cx="0" cy="0"/>
    <circle transform="matrix(1,0,0,-1,318.850006,-103.950027)" style="stroke:#00e000;stroke-width:0.05mm;fill:none" r="5.499997" cx="0" cy="0"/>
    <circle transform="matrix(1,0,0,-1,344.25,-103.950027)" style="stroke:#00e000;stroke-width:0.05mm;fill:none" r="5.499997" cx="0" cy="0"/>
    <circle transform="matrix(1,0,0,-1,369.650024,-103.950027)" style="stroke:#00e000;stroke-width:0.05mm;fill:none" r="5.499997" cx="0" cy="0"/>
    <circle transform="matrix(1,0,0,-1,395.049988,-103.950027)" style="stroke:#00e000;stroke-width:0.05mm;fill:none" r="5.499997" cx="0" cy="0"/>
    <circle transform="matrix(1,0,0,-1,420.450012,-103.950027)" style="stroke:#00e000;stroke-width:0.05mm;fill:none" r="5.499997" cx="0" cy="0"/>
    <circle transform="matrix(1,0,0,-1,191.850006,-78.550034)" style="stroke:#00e000;stroke-width:0.05mm;fill:none" r="5.499997" cx="0" cy="0"/>
    <circle transform="matrix(1,0,0,-1,217.25,-78.550034)" style="stroke:#00e000;stroke-width:0.05mm;fill:none" r="5.499997" cx="0" cy="0"/>
    <circle transform="matrix(1,0,0,-1,242.650009,-78.550034)" style="stroke:#00e000;stroke-width:0.05mm;fill:none" r="5.499997" cx="0" cy="0"/>
    <circle transform="matrix(1,0,0,-1,268.049988,-78.550034)" style="stroke:#00e000;stroke-width:0.05mm;fill:none" r="5.499997" cx="0" cy="0"/>
    <circle transform="matrix(1,0,0,-1,293.450012,-78.550034)" style="stroke:#00e000;stroke-width:0.05mm;fill:none" r="5.499997" cx="0" cy="0"/>
    <circle transform="matrix(1,0,0,-1,318.850006,-78.550034)" style="stroke:#00e000;stroke-width:0.05mm;fill:none" r="5.499997" cx="0" cy="0"/>
    <circle transform="matrix(1,0,0,-1,344.25,-78.550034)" style="stroke:#00e000;stroke-width:0.05mm;fill:none" r="5.499997" cx="0" cy="0"/>
    <circle transform="matrix(1,0,0,-1,369.650024,-78.550034)" style="stroke:#00e000;stroke-width:0.05mm;fill:none" r="5.499997" cx="0" cy="0"/>
    <circle transform="matrix(1,0,0,-1,395.049988,-78.550034)" style="stroke:#00e000;stroke-width:0.05mm;fill:none" r="5.499997" cx="0" cy="0"/>
    <circle transform="matrix(1,0,0,-1,420.450012,-78.550034)" style="stroke:#00e000;stroke-width:0.05mm;fill:none" r="5.499997" cx="0" cy="0"/>
</svg>
