<?xml version="1.0" encoding="UTF-8"?>
<svg xmlns="http://www.w3.org/2000/svg" xmlns:xlink="http://www.w3.org/1999/xlink" width="762.000mm" height="762.000mm" viewBox="4.000031 -605.000000 761.999878 762.000000">
    <rect transform="matrix(1,0,0,-1,384.999939,-224)" style="stroke:#00e000;stroke-width:0.05mm;fill:none" x="-380.999908" y="-381" width="761.999817" height="762"/>
    <circle transform="matrix(1,0,0,-1,42.09993,-566.899902)" style="stroke:#00e000;stroke-width:0.05mm;fill:none" r="5.499997" cx="0" cy="0"/>
    <circle transform="matrix(1,0,0,-1,118.299896,-566.899902)" style="stroke:#00e000;stroke-width:0.05mm;fill:none" r="5.499997" cx="0" cy="0"/>
    <circle transform="matrix(1,0,0,-1,194.499908,-566.899902)" style="stroke:#00e000;stroke-width:0.05mm;fill:none" r="5.499997" cx="0" cy="0"/>
    <circle transform="matrix(1,0,0,-1,270.699921,-566.899902)" style="stroke:#00e000;stroke-width:0.05mm;fill:none" r="5.499997" cx="0" cy="0"/>
    <circle transform="matrix(1,0,0,-1,346.899902,-566.899902)" style="stroke:#00e000;stroke-width:0.05mm;fill:none" r="5.499997" cx="0" cy="0"/>
    <circle transform="matrix(1,0,0,-1,423.099854,-566.899902)" style="stroke:#00e000;stroke-width:0.05mm;fill:none" r="5.499997" cx="0" cy="0"/>
    <circle transform="matrix(1,0,0,-1,499.299866,-566.899902)" style="stroke:#00e000;stroke-width:0.05mm;fill:none" r="5.499997" cx="0" cy="0"/>
    <circle transform="matrix(1,0,0,-1,575.499878,-566.899902)" style="stroke:#00e000;stroke-width:0.05mm;fill:none" r="5.499997" cx="0" cy="0"/>
    <circle transform="matrix(1,0,0,-1,651.699829,-566.899902)" style="stroke:#00e000;stroke-width:0.05mm;fill:none" r="5.499997" cx="0" cy="0"/>
    <circle transform="matrix(1,0,0,-1,727.899902,-566.899902)" style="stroke:#00e000;stroke-width:0.05mm;fill:none" r="5.499997" cx="0" cy="0"/>
    <circle transform="matrix(1,0,0,-1,42.09993,-490.699951)" style="stroke:#00e000;stroke-width:0.05mm;fill:none" r="5.499997" cx="0" cy="0"/>
    <circle transform="matrix(1,0,0,-1,118.299896,-490.699951)" style="stroke:#00e000;stroke-width:0.05mm;fill:none" r="5.499997" cx="0" cy="0"/>
    <circle transform="matrix(1,0,0,-1,194.499908,-490.699951)" style="stroke:#00e000;stroke-width:0.05mm;fill:none" r="5.499997" cx="0" cy="0"/>
    <circle transform="matrix(1,0,0,-1,270.699921,-490.699951)" style="stroke:#00e000;stroke-width:0.05mm;fill:none" r="5.499997" cx="0" cy="0"/>
    <circle transform="matrix(1,0,0,-1,346.899902,-490.699951)" style="stroke:#00e000;stroke-width:0.05mm;fill:none" r="5.499997" cx="0" cy="0"/>
    <circle transform="matrix(1,0,0,-1,423.099854,-490.699951)" style="stroke:#00e000;stroke-width:0.05mm;fill:none" r="5.499997" cx="0" cy="0"/>
    <circle transform="matrix(1,0,0,-1,499.299866,-490.699951)" style="stroke:#00e000;stroke-width:0.05mm;fill:none" r="5.499997" cx="0" cy="0"/>
    <circle transform="matrix(1,0,0,-1,575.499878,-490.699951)" style="stroke:#00e000;stroke-width:0.05mm;fill:none" r="5.499997" cx="0" cy="0"/>
    <circle transform="matrix(1,0,0,-1,651.699829,-490.699951)" style="stroke:#00e000;stroke-width:0.05mm;fill:none" r="5.499997" cx="0" cy="0"/>
    <circle transform="matrix(1,0,0,-1,727.899902,-490.699951)" style="stroke:#00e000;stroke-width:0.05mm;fill:none" r="5.499997" cx="0" cy="0"/>
    <circle transform="matrix(1,0,0,-1,42.09993,-414.499939)" style="stroke:#00e000;stroke-width:0.05mm;fill:none" r="5.499997" cx="0" cy="0"/>
    <circle transform="matrix(1,0,0,-1,118.299896,-414.499939)" style="stroke:#00e000;stroke-width:0.05mm;fill:none" r="5.499997" cx="0" cy="0"/>
    <circle transform="matrix(1,0,0,-1,194.499908,-414.499939)" style="stroke:#00e000;stroke-width:0.05mm;fill:none" r="5.499997" cx="0" cy="0"/>
    <circle transform="matrix(1,0,0,-1,270.699921,-414.499939)" style="stroke:#00e000;stroke-width:0.05mm;fill:none" r="5.499997" cx="0" cy="0"/>
    <circle transform="matrix(1,0,0,-1,346.899902,-414.499939)" style="stroke:#00e000;stroke-width:0.05mm;fill:none" r="5.499997" cx="0" cy="0"/>
    <circle transform="matrix(1,0,0,-1,423.099854,-414.499939)" style="stroke:#00e000;stroke-width:0.05mm;fill:none" r="5.499997" cx="0" cy="0"/>
    <circle transform="matrix(1,0,0,-1,499.299866,-414.499939)" style="stroke:#00e000;stroke-width:0.05mm;fill:none" r="5.499997" cx="0" cy="0"/>
    <circle transform="matrix(1,0,0,-1,575.499878,-414.499939)" style="stroke:#00e000;stroke-width:0.05mm;fill:none" r="5.499997" cx="0" cy="0"/>
    <circle transform="matrix(1,0,0,-1,651.699829,-414.499939)" style="stroke:#00e000;stroke-width:0.05mm;fill:none" r="5.499997" cx="0" cy="0"/>
    <circle transform="matrix(1,0,0,-1,727.899902,-414.499939)" style="stroke:#00e000;stroke-width:0.05mm;fill:none" r="5.499997" cx="0" cy="0"/>
    <circle transform="matrix(1,0,0,-1,42.09993,-338.299957)" style="stroke:#00e000;stroke-width:0.05mm;fill:none" r="5.499997" cx="0" cy="0"/>
    <circle transform="matrix(1,0,0,-1,118.299896,-338.299957)" style="stroke:#00e000;stroke-width:0.05mm;fill:none" r="5.499997" cx="0" cy="0"/>
    <circle transform="matrix(1,0,0,-1,194.499908,-338.299957)" style="stroke:#00e000;stroke-width:0.05mm;fill:none" r="5.499997" cx="0" cy="0"/>
    <circle transform="matrix(1,0,0,-1,270.699921,-338.299957)" style="stroke:#00e000;stroke-width:0.05mm;fill:none" r="5.499997" cx="0" cy="0"/>
    <circle transform="matrix(1,0,0,-1,346.899902,-338.299957)" style="stroke:#00e000;stroke-width:0.05mm;fill:none" r="5.499997" cx="0" cy="0"/>
    <circle transform="matrix(1,0,0,-1,423.099854,-338.299957)" style="stroke:#00e000;stroke-width:0.05mm;fill:none" r="5.499997" cx="0" cy="0"/>
    <circle transform="matrix(1,0,0,-1,499.299866,-338.299957)" style="stroke:#00e000;stroke-width:0.05mm;fill:none" r="5.499997" cx="0" cy="0"/>
    <circle transform="matrix(1,0,0,-1,575.499878,-338.299957)" style="stroke:#00e000;stroke-width:0.05mm;fill:none" r="5.499997" cx="0" cy="0"/>
    <circle transform="matrix(1,0,0,-1,651.699829,-338.299957)" style="stroke:#00e000;stroke-width:0.05mm;fill:none" r="5.499997" cx="0" cy="0"/>
    <circle transform="matrix(1,0,0,-1,727.899902,-338.299957)" style="stroke:#00e000;stroke-width:0.05mm;fill:none" r="5.499997" cx="0" cy="0"/>
    <circle transform="matrix(1,0,0,-1,42.09993,-262.099976)" style="stroke:#00e000;stroke-width:0.05mm;fill:none" r="5.499997" cx="0" cy="0"/>
    <circle transform="matrix(1,0,0,-1,118.299896,-262.099976)" style="stroke:#00e000;stroke-width:0.05mm;fill:none" r="5.499997" cx="0" cy="0"/>
    <circle transform="matrix(1,0,0,-1,194.499908,-262.099976)" style="stroke:#00e000;stroke-width:0.05mm;fill:none" r="5.499997" cx="0" cy="0"/>
    <circle transform="matrix(1,0,0,-1,270.699921,-262.099976)" style="stroke:#00e000;stroke-width:0.05mm;fill:none" r="5.499997" cx="0" cy="0"/>
    <circle transform="matrix(1,0,0,-1,346.899902,-262.099976)" style="stroke:#00e000;stroke-width:0.05mm;fill:none" r="5.499997" cx="0" cy="0"/>
    <circle transform="matrix(1,0,0,-1,423.099854,-262.099976)" style="stroke:#00e000;stroke-width:0.05mm;fill:none" r="5.499997" cx="0" cy="0"/>
    <circle transform="matrix(1,0,0,-1,499.299866,-262.099976)" style="stroke:#00e000;stroke-width:0.05mm;fill:none" r="5.499997" cx="0" cy="0"/>
    <circle transform="matrix(1,0,0,-1,575.499878,-262.099976)" style="stroke:#00e000;stroke-width:0.05mm;fill:none" r="5.499997" cx="0" cy="0"/>
    <circle transform="matrix(1,0,0,-1,651.699829,-262.099976)" style="stroke:#00e000;stroke-width:0.05mm;fill:none" r="5.499997" cx="0" cy="0"/>
    <circle transform="matrix(1,0,0,-1,727.899902,-262.099976)" style="stroke:#00e000;stroke-width:0.05mm;fill:none" r="5.499997" cx="0" cy="0"/>
    <circle transform="matrix(1,0,0,-1,42.09993,-185.899963)" style="stroke:#00e000;stroke-width:0.05mm;fill:none" r="5.499997" cx="0" cy="0"/>
    <circle transform="matrix(1,0,0,-1,118.299896,-185.899963)" style="stroke:#00e000;stroke-width:0.05mm;fill:none" r="5.499997" cx="0" cy="0"/>
    <circle transform="matrix(1,0,0,-1,194.499908,-185.899963)" style="stroke:#00e000;stroke-width:0.05mm;fill:none" r="5.499997" cx="0" cy="0"/>
    <circle transform="matrix(1,0,0,-1,270.699921,-185.899963)" style="stroke:#00e000;stroke-width:0.05mm;fill:none" r="5.499997" cx="0" cy="0"/>
    <circle transform="matrix(1,0,0,-1,346.899902,-185.899963)" style="stroke:#00e000;stroke-width:0.05mm;fill:none" r="5.499997" cx="0" cy="0"/>
    <circle transform="matrix(1,0,0,-1,423.099854,-185.899963)" style="stroke:#00e000;stroke-width:0.05mm;fill:none" r="5.499997" cx="0" cy="0"/>
    <circle transform="matrix(1,0,0,-1,499.299866,-185.899963)" style="stroke:#00e000;stroke-width:0.05mm;fill:none" r="5.499997" cx="0" cy="0"/>
    <circle transform="matrix(1,0,0,-1,575.499878,-185.899963)" style="stroke:#00e000;stroke-width:0.05mm;fill:none" r="5.499997" cx="0" cy="0"/>
    <circle transform="matrix(1,0,0,-1,651.699829,-185.899963)" style="stroke:#00e000;stroke-width:0.05mm;fill:none" r="5.499997" cx="0" cy="0"/>
    <circle transform="matrix(1,0,0,-1,727.899902,-185.899963)" style="stroke:#00e000;stroke-width:0.05mm;fill:none" r="5.499997" cx="0" cy="0"/>
    <circle transform="matrix(1,0,0,-1,42.09993,-109.699997)" style="stroke:#00e000;stroke-width:0.05mm;fill:none" r="5.499997" cx="0" cy="0"/>
    <circle transform="matrix(1,0,0,-1,118.299896,-109.699997)" style="stroke:#00e000;stroke-width:0.05mm;fill:none" r="5.499997" cx="0" cy="0"/>
    <circle transform="matrix(1,0,0,-1,194.499908,-109.699997)" style="stroke:#00e000;stroke-width:0.05mm;fill:none" r="5.499997" cx="0" cy="0"/>
    <circle transform="matrix(1,0,0,-1,270.699921,-109.699997)" style="stroke:#00e000;stroke-width:0.05mm;fill:none" r="5.499997" cx="0" cy="0"/>
    <circle transform="matrix(1,0,0,-1,346.899902,-109.699997)" style="stroke:#00e000;stroke-width:0.05mm;fill:none" r="5.499997" cx="0" cy="0"/>
    <circle transform="matrix(1,0,0,-1,423.099854,-109.699997)" style="stroke:#00e000;stroke-width:0.05mm;fill:none" r="5.499997" cx="0" cy="0"/>
    <circle transform="matrix(1,0,0,-1,499.299866,-109.699997)" style="stroke:#00e000;stroke-width:0.05mm;fill:none" r="5.499997" cx="0" cy="0"/>
    <circle transform="matrix(1,0,0,-1,575.499878,-109.699997)" style="stroke:#00e000;stroke-width:0.05mm;fill:none" r="5.499997" cx="0" cy="0"/>
    <circle transform="matrix(1,0,0,-1,651.699829,-109.699997)" style="stroke:#00e000;stroke-width:0.05mm;fill:none" r="5.499997" cx="0" cy="0"/>
    <circle transform="matrix(1,0,0,-1,727.899902,-109.699997)" style="stroke:#00e000;stroke-width:0.05mm;fill:none" r="5.499997" cx="0" cy="0"/>
    <circle transform="matrix(1,0,0,-1,42.09993,-33.500015)" style="stroke:#00e000;stroke-width:0.05mm;fill:none" r="5.499997" cx="0" cy="0"/>
    <circle transform="matrix(1,0,0,-1,118.299896,-33.500015)" style="stroke:#00e000;stroke-width:0.05mm;fill:none" r="5.499997" cx="0" cy="0"/>
    <circle transform="matrix(1,0,0,-1,194.499908,-33.500015)" style="stroke:#00e000;stroke-width:0.05mm;fill:none" r="5.499997" cx="0" cy="0"/>
    <circle transform="matrix(1,0,0,-1,270.699921,-33.500015)" style="stroke:#00e000;stroke-width:0.05mm;fill:none" r="5.499997" cx="0" cy="0"/>
    <circle transform="matrix(1,0,0,-1,346.899902,-33.500015)" style="stroke:#00e000;stroke-width:0.05mm;fill:none" r="5.499997" cx="0" cy="0"/>
    <circle transform="matrix(1,0,0,-1,423.099854,-33.500015)" style="stroke:#00e000;stroke-width:0.05mm;fill:none" r="5.499997" cx="0" cy="0"/>
    <circle transform="matrix(1,0,0,-1,499.299866,-33.500015)" style="stroke:#00e000;stroke-width:0.05mm;fill:none" r="5.499997" cx="0" cy="0"/>
    <circle transform="matrix(1,0,0,-1,575.499878,-33.500015)" style="stroke:#00e000;stroke-width:0.05mm;fill:none" r="5.499997" cx="0" cy="0"/>
    <circle transform="matrix(1,0,0,-1,651.699829,-33.500015)" style="stroke:#00e000;stroke-width:0.05mm;fill:none" r="5.499997" cx="0" cy="0"/>
    <circle transform="matrix(1,0,0,-1,727.899902,-33.500015)" style="stroke:#00e000;stroke-width:0.05mm;fill:none" r="5.499997" cx="0" cy="0"/>
    <circle transform="matrix(1,0,0,-1,42.09993,42.699982)" style="stroke:#00e000;stroke-width:0.05mm;fill:none" r="5.499997" cx="0" cy="0"/>
    <circle transform="matrix(1,0,0,-1,118.299896,42.699982)" style="stroke:#00e000;stroke-width:0.05mm;fill:none" r="5.499997" cx="0" cy="0"/>
    <circle transform="matrix(1,0,0,-1,194.499908,42.699982)" style="stroke:#00e000;stroke-width:0.05mm;fill:none" r="5.499997" cx="0" cy="0"/>
    <circle transform="matrix(1,0,0,-1,270.699921,42.699982)" style="stroke:#00e000;stroke-width:0.05mm;fill:none" r="5.499997" cx="0" cy="0"/>
    <circle transform="matrix(1,0,0,-1,346.899902,42.699982)" style="stroke:#00e000;stroke-width:0.05mm;fill:none" r="5.499997" cx="0" cy="0"/>
    <circle transform="matrix(1,0,0,-1,423.099854,42.699982)" style="stroke:#00e000;stroke-width:0.05mm;fill:none" r="5.499997" cx="0" cy="0"/>
    <circle transform="matrix(1,0,0,-1,499.299866,42.699982)" style="stroke:#00e000;stroke-width:0.05mm;fill:none" r="5.499997" cx="0" cy="0"/>
    <circle transform="matrix(1,0,0,-1,575.499878,42.699982)" style="stroke:#00e000;stroke-width:0.05mm;fill:none" r="5.499997" cx="0" cy="0"/>
    <circle transform="matrix(1,0,0,-1,651.699829,42.699982)" style="stroke:#00e000;stroke-width:0.05mm;fill:none" r="5.499997" cx="0" cy="0"/>
    <circle transform="matrix(1,0,0,-1,727.899902,42.699982)" style="stroke:#00e000;stroke-width:0.05mm;fill:none" r="5.499997" cx="0" cy="0"/>
    <circle transform="matrix(1,0,0,-1,42.09993,118.899994)" style="stroke:#00e000;stroke-width:0.05mm;fill:none" r="5.499997" cx="0" cy="0"/>
    <circle transform="matrix(1,0,0,-1,118.299896,118.899994)" style="stroke:#00e000;stroke-width:0.05mm;fill:none" r="5.499997" cx="0" cy="0"/>
    <circle transform="matrix(1,0,0,-1,194.499908,118.899994)" style="stroke:#00e000;stroke-width:0.05mm;fill:none" r="5.499997" cx="0" cy="0"/>
    <circle transform="matrix(1,0,0,-1,270.699921,118.899994)" style="stroke:#00e000;stroke-width:0.05mm;fill:none" r="5.499997" cx="0" cy="0"/>
    <circle transform="matrix(1,0,0,-1,346.899902,118.899994)" style="stroke:#00e000;stroke-width:0.05mm;fill:none" r="5.499997" cx="0" cy="0"/>
    <circle transform="matrix(1,0,0,-1,423.099854,118.899994)" style="stroke:#00e000;stroke-width:0.05mm;fill:none" r="5.499997" cx="0" cy="0"/>
    <circle transform="matrix(1,0,0,-1,499.299866,118.899994)" style="stroke:#00e000;stroke-width:0.05mm;fill:none" r="5.499997" cx="0" cy="0"/>
    <circle transform="matrix(1,0,0,-1,575.499878,118.899994)" style="stroke:#00e000;stroke-width:0.05mm;fill:none" r="5.499997" cx="0" cy="0"/>
    <circle transform="matrix(1,0,0,-1,651.699829,118.899994)" style="stroke:#00e000;stroke-width:0.05mm;fill:none" r="5.499997" cx="0" cy="0"/>
    <circle transform="matrix(1,0,0,-1,727.899902,118.899994)" style="stroke:#00e000;stroke-width:0.05mm;fill:none" r="5.499997" cx="0" cy="0"/>
</svg>
